<svg xmlns="http://www.w3.org/2000/svg" width="128" height="128" viewBox="0 0 128 128">
  <title>GarderieFacile</title>
  <!-- House body -->
  <path d="M24 58 L24 108 Q24 112 28 112 L100 112 Q104 112 104 108 L104 58"
        fill="none" stroke="#9b8fc2" stroke-width="8" stroke-linecap="round" stroke-linejoin="round"/>
  <!-- Roof -->
  <path d="M16 62 L64 20 L112 62"
        fill="none" stroke="#e8a88a" stroke-width="10" stroke-linecap="round" stroke-linejoin="round"/>
  <!-- Chimney -->
  <rect x="88" y="28" width="12" height="28" rx="2" fill="#9fc5d8"/>
  <!-- Left eye -->
  <path d="M42 68 Q46 62 50 68" fill="none" stroke="#7a6d8a" stroke-width="4" stroke-linecap="round"/>
  <!-- Right eye -->
  <path d="M78 68 Q82 62 86 68" fill="none" stroke="#7a6d8a" stroke-width="4" stroke-linecap="round"/>
  <!-- Smile -->
  <path d="M48 82 Q64 96 80 82" fill="none" stroke="#7a6d8a" stroke-width="4" stroke-linecap="round"/>
  <!-- Door -->
  <path d="M52 112 L52 88 Q52 82 58 82 L70 82 Q76 82 76 88 L76 112"
        fill="none" stroke="#b8a8d8" stroke-width="4" stroke-linecap="round" stroke-linejoin="round"/>
  <!-- Child silhouette (simplified) -->
  <circle cx="64" cy="92" r="5" fill="#d4a68a"/>
  <ellipse cx="64" cy="104" rx="4" ry="6" fill="#d4a68a"/>
</svg>
